<svg version="1.1" id="ak-landinglogo" xmlns="http://www.w3.org/2000/svg" xmlns:xlink="http://www.w3.org/1999/xlink" x="0px" y="0px" height="24px" viewBox="60 285 370 90" xml:space="preserve">
	<path fill="#4BD1D3" d="M82,346.655c0-8.52-7.237-8.886-7.237-8.886v-9.436c0,0,7.237-0.366,7.237-8.978v-7.329 c0-12.917,10.169-14.383,15.024-14.383c1.557,0,2.657,0.092,2.657,0.092v7.97c0,0-0.641-0.092-1.557-0.092 c-2.29,0-6.962,0.733-6.962,7.237v9.253c0,8.52-6.962,10.81-6.962,10.81v0.183c0,0,6.962,1.924,6.962,10.718v10.169 c0,6.596,4.672,7.237,6.962,7.237c0.824,0,1.557-0.092,1.557-0.092v7.97c0,0-1.099,0.183-2.657,0.183 c-4.855,0-15.024-1.466-15.024-14.474V346.655z"/>
	<path fill="hsl(15, 11%, 14%)" d="M131.286,333.738h1.374v-0.366c0-6.229-2.473-8.52-7.97-8.52c-1.924,0-5.771,0.55-5.771,2.932v2.29 h-10.077v-4.581c0-8.062,11.36-8.978,15.94-8.978c14.474,0,18.688,7.604,18.688,17.314v16.123c0,1.191,0.641,1.832,1.832,1.832 h3.39v9.069h-9.619c-4.031,0-5.497-2.199-5.497-4.764c0-1.099,0.092-1.832,0.092-1.832h-0.183c0,0-3.298,7.695-13.1,7.695 c-7.787,0-14.841-4.855-14.841-13.558C105.544,334.838,124.233,333.738,131.286,333.738z M122.95,353.526 c5.771,0,9.894-6.138,9.894-11.36v-1.008h-1.832c-5.588,0-14.566,0.733-14.566,6.779 C116.446,350.778,118.553,353.526,122.95,353.526z"/>
	<path fill="hsl(15, 11%, 14%)" d="M153.823,328.242c-0.458-1.099-1.191-1.557-2.382-1.557h-0.916v-9.161h6.229 c3.573,0,5.313,1.099,6.413,4.122l8.153,22.811c0.916,2.565,1.649,6.229,1.649,6.229h0.183c0,0,0.641-3.664,1.557-6.229 l8.153-22.811c1.099-3.023,2.932-4.122,6.413-4.122h5.771v9.161h-1.008c-1.191,0-1.924,0.458-2.382,1.557l-12.551,32.705h-12.825 L153.823,328.242z"/>
	<path fill="hsl(15, 11%, 14%)" d="M219.782,316.516c12.459,0,19.238,9.069,19.238,20.612c0,1.283-0.275,4.031-0.275,4.031h-29.956 c0.824,7.695,6.504,11.634,13.009,11.634c6.962,0,12.184-4.855,12.184-4.855l4.489,7.512c0,0-6.596,6.596-17.406,6.596 c-14.383,0-23.269-10.352-23.269-22.719C197.704,325.86,206.773,316.516,219.782,316.516z M227.935,333.647 c-0.183-5.222-3.756-8.795-8.153-8.795c-5.497,0-9.436,3.298-10.627,8.795H227.935z"/>
	<path fill="hsl(15, 11%, 14%)" d="M249.189,311.569c0-1.283-0.641-1.832-1.832-1.832h-3.39v-9.161h10.26c4.031,0,5.771,1.832,5.771,5.771 v43.606c0,1.191,0.641,1.832,1.832,1.832h3.298v9.069H254.96c-4.122,0-5.771-1.741-5.771-5.771V311.569z"/>
	<path fill="#4BD1D3" d="M275.023,317.523h10.352v10.81h-10.352V317.523z M275.023,350.136h10.352v10.81h-10.352V350.136z"/>
	<path fill="#C5A983" d="M299.94,311.569c0-1.283-0.641-1.832-1.832-1.832h-3.39v-9.161h10.26c4.031,0,5.771,0.916,5.771,4.947 v27.391h3.206c1.374,0,3.115-0.275,4.122-1.649l8.886-13.742h12.001l-10.993,16.307c-1.832,2.748-3.206,3.39-3.206,3.39v0.183 c0,0,1.557,0.641,3.023,3.39l4.947,9.344c0.641,1.283,1.557,1.649,3.573,1.649h2.932v9.069h-8.062 c-3.664,0-5.13-0.641-6.779-3.756l-7.237-13.65c-0.824-1.557-2.657-1.649-4.031-1.649h-2.382v18.963h-10.81L299.94,311.569 L299.94,311.569z"/>
	<path id="let-a" fill="#C5A983" d="M368.556,333.738h1.374v-0.366c0-6.229-2.473-8.52-7.97-8.52c-1.924,0-5.771,0.55-5.771,2.932     v2.29h-10.077v-4.581c0-8.062,11.36-8.978,15.94-8.978c14.474,0,18.688,7.604,18.688,17.314v16.123     c0,1.191,0.641,1.832,1.832,1.832h3.39v9.069h-9.711c-4.031,0-5.497-2.199-5.497-4.764c0-1.099,0.092-1.832,0.092-1.832h-0.183     c0,0-3.298,7.695-13.1,7.695c-7.787,0-14.841-4.855-14.841-13.558C342.814,334.838,361.502,333.738,368.556,333.738z      M360.22,353.526c5.771,0,9.894-6.138,9.894-11.36v-1.008h-1.832c-5.588,0-14.566,0.733-14.566,6.779     C353.716,350.778,355.823,353.526,360.22,353.526z"/>
	<path fill="#4BD1D3" d="M392.192,361.313c2.29,0,6.871-0.641,6.871-7.237v-10.169c0-8.795,7.054-10.718,7.054-10.718v-0.183 c0,0-7.054-2.29-7.054-10.81v-9.253c0-6.504-4.581-7.237-6.871-7.237c-0.824,0-1.557,0.092-1.557,0.092v-7.97 c0,0,1.099-0.092,2.657-0.092c4.855,0,15.024,1.466,15.024,14.383v7.329c0,8.703,7.237,8.978,7.237,8.978v9.436 c0,0-7.237,0.366-7.237,8.886v8.245c0,13.009-10.169,14.474-15.024,14.474c-1.557,0-2.657-0.183-2.657-0.183v-7.97 C390.634,361.221,391.276,361.313,392.192,361.313z"/>
</svg>