<svg xmlns="http://www.w3.org/2000/svg" width="1284" height="802"><path fill="none" d="M1280 801h4v-1.2l-4 1.2z"/><path fill="#EEC874" stroke="#EEC874" d="M.5 15.7V33L40 27 .5 15.7z"/><path fill="#F0CC7C" stroke="#F0CC7C" d="M156.3 20L.5 3.8v12L40 27l116.3-7z"/><path fill="#F6D895" stroke="#F6D895" d="M481 .5H.4v3.3l155.8 16.4L481 .5z"/><path fill="#EECD87" stroke="#EECD87" d="M.5 72.2v27L15 88 .5 72.2z"/><path fill="#EFCC81" stroke="#EFCC81" d="M40.3 27L.5 33v39.2L15 88l25.3-61z"/><path fill="#F0D08A" stroke="#F0D08A" d="M40.5 27l-25 61 48-12-23-49z"/><path fill="#F1D18C" stroke="#F1D18C" d="M101.5 67l-61-40 23 49 38-9z"/><path fill="#F2D28D" stroke="#F2D28D" d="M143.5 42l-103-15 61 40 42-25z"/><path fill="#F2D28B" stroke="#F2D28B" d="M156.5 20l-116 7 103 15 13-22z"/><path fill="#F2D69A" stroke="#F2D69A" d="M101.5 67l5 55 37-80-42 25z"/><path fill="#F3DAA3" stroke="#F3DAA3" d="M143.5 42l-37 80 89-17-52-63z"/><path fill="#F4DBA5" stroke="#F4DBA5" d="M203.5 97l-60-55 52 63 8-8z"/><path fill="#F4D89B" stroke="#F4D89B" d="M203.5 97l-47-77-13 22 60 55z"/><path fill="#F5DBA3" stroke="#F5DBA3" d="M227.5 83l-71-63 47 77 24-14z"/><path fill="#F5DA9F" stroke="#F5DA9F" d="M255.5 29l-99-9 71 63 28-54z"/><path fill="#F9E1AA" stroke="#F9E1AA" d="M255.5 29.3L528.5.5H481l-324.5 20 99 8.8z"/><path fill="#F7DEA8" stroke="#F7DEA8" d="M295.5 36l-40-7-28 54 68-47z"/><path fill="#F9E1AC" stroke="#F9E1AC" d="M411.5 27l-156 2 40 7 116-9z"/><path fill="#F1DFAA" stroke="#F1DFAA" d="M411.5 27.3L556.8.5h-28.2l-273 29 156-2.2z"/><path fill="#F7E1B1" stroke="#F7E1B1" d="M295.5 36l-68 47 81 9-13-56z"/><path fill="#F9E4B7" stroke="#F9E4B7" d="M337.5 84l-42-48 13 56 29-8z"/><path fill="#F9E4B4" stroke="#F9E4B4" d="M356.5 39l-61-3 42 48 19-45z"/><path fill="#FAE4B3" stroke="#FAE4B3" d="M356.5 39l55-12-116 9 61 3z"/><path fill="#F8E7BE" stroke="#F8E7BE" d="M431.5 86l-75-47-19 45 94 2z"/><path fill="#F4E3B6" stroke="#F4E3B6" d="M431.5 86l-20-59-55 12 75 47z"/><path fill="#EFE1B4" stroke="#EFE1B4" d="M452.5 47l-41-20 20 59 21-39z"/><path fill="#ECDFAE" stroke="#ECDFAE" d="M472.5 33l-61-6 41 20 20-14z"/><path fill="#E4DAA5" stroke="#E4DAA5" d="M472.5 33.3L573.2.5H557l-145.5 27 61 5.8z"/><path fill="#E9E0B5" stroke="#E9E0B5" d="M475.5 117l-3-84-20 14 23 70z"/><path fill="#E4DFB7" stroke="#E4DFB7" d="M539.5 88l-67-55 3 84 64-29z"/><path fill="#DFDAAC" stroke="#DFDAAC" d="M558.5 30l-86 3 67 55 19-58z"/><path fill="#DCD7A1" stroke="#DCD7A1" d="M558.5 30.3L587.7.5h-14.5l-100.7 33 86-3.2z"/><path fill="#D8D9AD" stroke="#D8D9AD" d="M605.5 77l-47-47-19 58 66-11z"/><path fill="#D4D4A2" stroke="#D4D4A2" d="M605.5 77.3L595.5.5h-7.8l-29.2 30 47 46.8z"/><path fill="#CFD3A3" stroke="#CFD3A3" d="M649.5 65.3L599.8.5h-4.4l10 77 44-12.2z"/><path fill="#CCD09C" stroke="#CCD09C" d="M668.5 24.3L611.2.5h-11.4l49.7 65 19-41.2z"/><path fill="#C4CC96" stroke="#C4CC96" d="M780.5 37.3L624 .5h-12.8l57.3 24 112 12.8z"/><path fill="#B7C790" stroke="#B7C790" d="M903.5 27.3L658 .5h-34l156.5 37 123-10.2z"/><path fill="#AAC087" stroke="#AAC087" d="M1003.5 2.3l-91-1.8H658.2l245.5 27 100-25.2z"/><path fill="#95B679" stroke="#95B679" d="M1042.2.5H912.6l91 2 38.6-2z"/><path fill="#C5D0A0" stroke="#C5D0A0" d="M668.5 24l-19 41 70 7-51-48z"/><path fill="#C1CD9C" stroke="#C1CD9C" d="M719.5 35l-51-11 51 48V35z"/><path fill="#BDCB96" stroke="#BDCB96" d="M780.5 37l-112-13 51 11 61 2z"/><path fill="#BCCB9C" stroke="#BCCB9C" d="M719.5 35v37l38-26-38-11z"/><path fill="#B8C997" stroke="#B8C997" d="M757.5 46l23-9-61-2 38 11z"/><path fill="#B2C897" stroke="#B2C897" d="M819.5 68l-39-31-23 9 62 22z"/><path fill="#AFC695" stroke="#AFC695" d="M812.5 39l-32-2 39 31-7-29z"/><path fill="#ABC38F" stroke="#ABC38F" d="M903.5 27l-123 10 32 2 91-12z"/><path fill="#AAC493" stroke="#AAC493" d="M812.5 39l7 29 59-23-66-6z"/><path fill="#A5C18D" stroke="#A5C18D" d="M878.5 45l25-18-91 12 66 6z"/><path fill="#9CBF8E" stroke="#9CBF8E" d="M972.5 94l-69-67-25 18 94 49z"/><path fill="#95BD8D" stroke="#95BD8D" d="M992.5 68l-89-41 69 67 20-26z"/><path fill="#95BA85" stroke="#95BA85" d="M983.5 21l-80 6 89 41-9-47z"/><path fill="#94B87F" stroke="#94B87F" d="M1003.5 2l-100 25 80-6 20-19z"/><path fill="#8FB780" stroke="#8FB780" d="M992.5 68l11-66-20 19 9 47z"/><path fill="#8AB57C" stroke="#8AB57C" d="M1072.5 4l-69-2-11 66 80-64z"/><path fill="#80AC6D" stroke="#80AC6D" d="M1072.5 4.3L1123 .5h-80.8l-38.7 2 69 1.8z"/><path fill="#85B47F" stroke="#85B47F" d="M1093.5 45l-21-41-80 64 101-23z"/><path fill="#80B078" stroke="#80B078" d="M1111.5 32l-39-28 21 41 18-13z"/><path fill="#80AA6D" stroke="#80AA6D" d="M1111.5 32.3L1230 .5h-107l-50.5 4 39 27.8z"/><path fill="#80B07D" stroke="#80B07D" d="M1157.5 75l-46-43-18 13 64 30z"/><path fill="#80AD78" stroke="#80AD78" d="M1222.5 33l-111-1 46 43 65-42z"/><path fill="#80A76C" stroke="#80A76C" d="M1222.5 33.3l38-32.8H1230l-118.6 32 111 .8z"/><path fill="#80AD7C" stroke="#80AD7C" d="M1200.5 97l22-64-65 42 43 22z"/><path fill="#80AB79" stroke="#80AB79" d="M1242.5 75l-20-42-22 64 42-22z"/><path fill="#80A773" stroke="#80A773" d="M1242.3 75l41.3-14.6V52L1222 33l20.3 42z"/><path fill="#80A36A" stroke="#80A36A" d="M1283.5 52V17.5l-5-17h-18l-38.3 33 61.3 18.7z"/><path fill="#80A064" stroke="#80A064" d="M1283.5.5h-5l5 17V.5z"/><path fill="#EED194" stroke="#EED194" d="M.5 99.3v21.4L15 88 .5 99.3z"/><path fill="#EFD49B" stroke="#EFD49B" d="M15.3 88L.5 120.7v35.5L60 150 15.4 88z"/><path fill="#F0D497" stroke="#F0D497" d="M15.5 88l45 62 3-74-48 12z"/><path fill="#F1D79F" stroke="#F1D79F" d="M63.5 76l-3 74 46-28-43-46z"/><path fill="#F2D599" stroke="#F2D599" d="M63.5 76l43 46-5-55-38 9z"/><path fill="#F5E1B4" stroke="#F5E1B4" d="M233.5 145l-30-48-8 8 38 40z"/><path fill="#F6E1B4" stroke="#F6E1B4" d="M227.5 83l-24 14 30 48-6-62z"/><path fill="#F7E4BB" stroke="#F7E4BB" d="M280.5 130l-53-47 6 62 47-15z"/><path fill="#F7E4BA" stroke="#F7E4BA" d="M308.5 92l-81-9 53 47 28-38z"/><path fill="#F9E9C8" stroke="#F9E9C8" d="M308.5 92l-28 38 79 27-51-65z"/><path fill="#F9EAC6" stroke="#F9EAC6" d="M337.5 84l-29 8 51 65-22-73z"/><path fill="#F9ECCF" stroke="#F9ECCF" d="M419.5 137l-82-53 22 73 60-20z"/><path fill="#F5E8C6" stroke="#F5E8C6" d="M419.5 137l12-51-94-2 82 53z"/><path fill="#EDE6C5" stroke="#EDE6C5" d="M475.5 117l-44-31-12 51 56-20z"/><path fill="#EBE2BC" stroke="#EBE2BC" d="M452.5 47l-21 39 44 31-23-70z"/><path fill="#E2E2C3" stroke="#E2E2C3" d="M539.5 88l-64 29 36 44 28-73z"/><path fill="#DCDFBF" stroke="#DCDFBF" d="M577.5 112l-38-24-28 73 66-49z"/><path fill="#D6DBB4" stroke="#D6DBB4" d="M577.5 112l28-35-66 11 38 24z"/><path fill="#D0D9B4" stroke="#D0D9B4" d="M645.5 105l-40-28-28 35 68-7z"/><path fill="#CCD6AD" stroke="#CCD6AD" d="M649.5 65l-44 12 40 28 4-40z"/><path fill="#C6D3A9" stroke="#C6D3A9" d="M719.5 72l-70-7-4 40 74-33z"/><path fill="#C1D3AF" stroke="#C1D3AF" d="M719.5 72l-74 33 91 39-17-72z"/><path fill="#BBD2B0" stroke="#BBD2B0" d="M752.5 144.5l-33-72 17 72h16z"/><path fill="#BACEA5" stroke="#BACEA5" d="M757.5 46l-38 26 33 72 5-98z"/><path fill="#B4CCA2" stroke="#B4CCA2" d="M819.5 68l-62-22-5 98 67-76z"/><path fill="#AFCCA7" stroke="#AFCCA7" d="M838.5 114l-19-46-67 76 86-30z"/><path fill="#A8C69A" stroke="#A8C69A" d="M878.5 45l-59 23 19 46 40-69z"/><path fill="#A5C7A0" stroke="#A5C7A0" d="M882.5 145l-4-100-40 69 44 31z"/><path fill="#9DC39A" stroke="#9DC39A" d="M972.5 94l-94-49 4 100 90-51z"/><path fill="#98C4A0" stroke="#98C4A0" d="M968.5 135l4-41-90 51 86-10z"/><path fill="#91C09A" stroke="#91C09A" d="M1001.5 109l-29-15-4 41 33-26z"/><path fill="#90BD93" stroke="#90BD93" d="M992.5 68l-20 26 29 15-9-41z"/><path fill="#8ABB92" stroke="#8ABB92" d="M1082.5 113l-90-45 9 41 81 4z"/><path fill="#84B789" stroke="#84B789" d="M1093.5 45l-101 23 90 45 11-68z"/><path fill="#80B385" stroke="#80B385" d="M1157.5 75l-64-30-11 68 75-38z"/><path fill="#80B68F" stroke="#80B68F" d="M1127.5 160l30-85-75 38 45 47z"/><path fill="#80B591" stroke="#80B591" d="M1175.5 151l-18-76-30 85 48-9z"/><path fill="#80B188" stroke="#80B188" d="M1200.5 97l-43-22 18 76 25-54z"/><path fill="#80B18E" stroke="#80B18E" d="M1175.5 151l93 6-68-60-25 54z"/><path fill="#80AD85" stroke="#80AD85" d="M1268.5 157l-26-82-42 22 68 60z"/><path fill="#80AA7E" stroke="#80AA7E" d="M1268.3 157l15.3-56V60.5L1242 75l26.3 82z"/><path fill="#80A980" stroke="#80A980" d="M1283.5 150.6V101l-15.5 56 15.5-6.4z"/><path fill="#EFD6A1" stroke="#EFD6A1" d="M.5 156.3v9.4L60 150 .5 156.3z"/><path fill="#F0D9A9" stroke="#F0D9A9" d="M60.3 150L.5 165.7v12L51 201l9.3-51z"/><path fill="#F1DDB0" stroke="#F1DDB0" d="M60.5 150l-9 51 57-23-48-28z"/><path fill="#F2DCAB" stroke="#F2DCAB" d="M106.5 122l-46 28 48 28-2-56z"/><path fill="#F3DDAE" stroke="#F3DDAE" d="M106.5 122l2 56 87-73-89 17z"/><path fill="#F4E2BC" stroke="#F4E2BC" d="M195.5 105l-87 73 87 34V105z"/><path fill="#F5E4BF" stroke="#F5E4BF" d="M195.5 105v107l38-67-38-40z"/><path fill="#F6E8C9" stroke="#F6E8C9" d="M233.5 145l-38 67 55-33-17-34z"/><path fill="#F7E7C6" stroke="#F7E7C6" d="M280.5 130l-47 15 17 34 30-49z"/><path fill="#F7EBCF" stroke="#F7EBCF" d="M299.5 211l-19-81-30 49 49 32z"/><path fill="#F9EDD3" stroke="#F9EDD3" d="M359.5 157l-79-27 19 81 60-54z"/><path fill="#F9F1E0" stroke="#F9F1E0" d="M359.5 157l-60 54 28 19 32-73z"/><path fill="#FAF3E2" stroke="#FAF3E2" d="M375.5 199l-16-42-32 73 48-31z"/><path fill="#F7EFD9" stroke="#F7EFD9" d="M375.5 199l44-62-60 20 16 42z"/><path fill="#F3EFDD" stroke="#F3EFDD" d="M427.5 218l-8-81-44 62 52 19z"/><path fill="#EEECD9" stroke="#EEECD9" d="M465.5 182l-46-45 8 81 38-36z"/><path fill="#EBE8CE" stroke="#EBE8CE" d="M465.5 182l10-65-56 20 46 45z"/><path fill="#E6E7CE" stroke="#E6E7CE" d="M511.5 161l-36-44-10 65 46-21z"/><path fill="#E2E8D3" stroke="#E2E8D3" d="M511.5 161l-46 21 69 3-23-24z"/><path fill="#DCE4CE" stroke="#DCE4CE" d="M584.5 167l-73-6 23 24 50-18z"/><path fill="#D9E1C6" stroke="#D9E1C6" d="M584.5 167l-7-55-66 49 73 6z"/><path fill="#D2DCBD" stroke="#D2DCBD" d="M645.5 105l-68 7 7 55 61-62z"/><path fill="#CCDCC3" stroke="#CCDCC3" d="M685.5 199l-40-94-61 62 101 32z"/><path fill="#C3D8BC" stroke="#C3D8BC" d="M736.5 144l-91-39 40 94 51-55z"/><path fill="#BFDAC6" stroke="#BFDAC6" d="M736.5 144l-51 55 28 23 23-78z"/><path fill="#BBD6BF" stroke="#BBD6BF" d="M752.5 144.5h-16l-23 78 39-78z"/><path fill="#B8D7C5" stroke="#B8D7C5" d="M793.5 221l-41-77-39 78 80-1z"/><path fill="#B1D1B7" stroke="#B1D1B7" d="M838.5 114l-86 30 41 77 45-107z"/><path fill="#ABD1BA" stroke="#ABD1BA" d="M855.5 203l-17-89-45 107 62-18z"/><path fill="#A6CCB0" stroke="#A6CCB0" d="M882.5 145l-44-31 17 89 27-58z"/><path fill="#A2CDB7" stroke="#A2CDB7" d="M910.5 206l-28-61-27 58 55 3z"/><path fill="#9CC9AE" stroke="#9CC9AE" d="M968.5 135l-86 10 28 61 58-71z"/><path fill="#98C9B2" stroke="#98C9B2" d="M948.5 211l20-76-58 71 38 5z"/><path fill="#92C6AD" stroke="#92C6AD" d="M1018.5 182l-50-47-20 76 70-29z"/><path fill="#8FC1A2" stroke="#8FC1A2" d="M1001.5 109l-33 26 50 47-17-73z"/><path fill="#88BE9C" stroke="#88BE9C" d="M1082.5 113l-81-4 17 73 64-69z"/><path fill="#83BFA4" stroke="#83BFA4" d="M1088.5 207l-6-94-64 69 70 25z"/><path fill="#80BC9E" stroke="#80BC9E" d="M1127.5 160l-45-47 6 94 39-47z"/><path fill="#80BCA4" stroke="#80BCA4" d="M1150.5 190l-23-30-39 47 62-17z"/><path fill="#80B99D" stroke="#80B99D" d="M1150.5 190l25-39-48 9 23 30z"/><path fill="#80B79E" stroke="#80B79E" d="M1225.5 199l-50-48-25 39 75 9z"/><path fill="#80B397" stroke="#80B397" d="M1225.5 199l43-42-93-6 50 48z"/><path fill="#80B39A" stroke="#80B39A" d="M1251.5 196l17-39-43 42 26-3z"/><path fill="#80B39B" stroke="#80B39B" d="M1277.5 227l-9-70-17 39 26 31z"/><path fill="#80B19B" stroke="#80B19B" d="M1277.3 227l6.3-1v-56l-15.4-13 9 70z"/><path fill="#80AD8F" stroke="#80AD8F" d="M1283.5 170v-19.4L1268 157l15.5 13z"/><path fill="#EFDAAE" stroke="#EFDAAE" d="M.5 177.6v49.6L51 201 .5 177.6z"/><path fill="#F0DEBA" stroke="#F0DEBA" d="M51.3 201L.5 227.2v15.5L79 242l-27.7-41z"/><path fill="#F1E0BA" stroke="#F1E0BA" d="M51.5 201l28 41 29-64-57 23z"/><path fill="#F2E3C3" stroke="#F2E3C3" d="M108.5 178l-29 64 67-8-38-56z"/><path fill="#F3E5C6" stroke="#F3E5C6" d="M108.5 178l38 56 49-22-87-34z"/><path fill="#F4E9D1" stroke="#F4E9D1" d="M146.5 234l26 27 23-49-49 22z"/><path fill="#F5EDDC" stroke="#F5EDDC" d="M195.5 212l-23 49 72 28-49-77z"/><path fill="#F6EEDD" stroke="#F6EEDD" d="M195.5 212l49 77 13-60-62-17z"/><path fill="#F6EBD3" stroke="#F6EBD3" d="M250.5 179l-55 33 62 17-7-50z"/><path fill="#F7EDD8" stroke="#F7EDD8" d="M250.5 179l7 50 42-18-49-32z"/><path fill="#F8F1E1" stroke="#F8F1E1" d="M299.5 211l-42 18 70 1-28-19z"/><path fill="#FAF5EA" stroke="#FAF5EA" d="M346.5 243l29-44-48 31 19 13z"/><path fill="#F7F4EA" stroke="#F7F4EA" d="M427.5 218l-52-19-29 44 81-25z"/><path fill="#F3F5EE" stroke="#F3F5EE" d="M446.5 262l-19-44-81 25 100 19z"/><path fill="#ECF0E5" stroke="#ECF0E5" d="M446.5 262l19-80-38 36 19 44z"/><path fill="#E6ECDF" stroke="#E6ECDF" d="M534.5 185l-69-3-19 80 88-77z"/><path fill="#E7EFE8" stroke="#E7EFE8" d="M534.5 185l-88 77 11 14 77-91z"/><path fill="#E0ECE4" stroke="#E0ECE4" d="M561.5 255l-27-70-77 91 104-21z"/><path fill="#D9E6D6" stroke="#D9E6D6" d="M561.5 255l23-88-50 18 27 70z"/><path fill="#D4E6DB" stroke="#D4E6DB" d="M626.5 255.5l-42-88-23 88h65z"/><path fill="#CFE3D8" stroke="#CFE3D8" d="M648.5 246l-64-79 42 88 22-9z"/><path fill="#CBE1D0" stroke="#CBE1D0" d="M685.5 199l-101-32 64 79 37-47z"/><path fill="#C5E0D7" stroke="#C5E0D7" d="M693.5 261l-8-62-37 47 45 15z"/><path fill="#C1DED3" stroke="#C1DED3" d="M713.5 222l-28-23 8 62 20-39z"/><path fill="#BFE0DB" stroke="#BFE0DB" d="M713.5 222l-20 39 43 33-23-72z"/><path fill="#BADFDA" stroke="#BADFDA" d="M779.5 279l-66-57 23 72 43-15z"/><path fill="#B6DBD1" stroke="#B6DBD1" d="M793.5 221l-80 1 66 57 14-58z"/><path fill="#B1DAD3" stroke="#B1DAD3" d="M817.5 265l-24-44-14 58 38-14z"/><path fill="#ACD6CA" stroke="#ACD6CA" d="M855.5 203l-62 18 24 44 38-62z"/><path fill="#A7D5CA" stroke="#A7D5CA" d="M894.5 260l-39-57-38 62 77-5z"/><path fill="#A1D0C2" stroke="#A1D0C2" d="M910.5 206l-55-3 39 57 16-54z"/><path fill="#9CCFC3" stroke="#9CCFC3" d="M954.5 234l-44-28-16 54 60-26z"/><path fill="#99CCBC" stroke="#99CCBC" d="M948.5 211l-38-5 44 28-6-23z"/><path fill="#94CCBF" stroke="#94CCBF" d="M991.5 251l-43-40 6 23 37 17z"/><path fill="#90C9B8" stroke="#90C9B8" d="M1018.5 182l-70 29 43 40 27-69z"/><path fill="#88C5B4" stroke="#88C5B4" d="M1088.5 207l-70-25-27 69 97-44z"/><path fill="#86C7BC" stroke="#86C7BC" d="M1066.5 281l22-74-97 44 75 30z"/><path fill="#80C4B8" stroke="#80C4B8" d="M1066.5 281l53-35-31-39-22 74z"/><path fill="#80BFAD" stroke="#80BFAD" d="M1119.5 246l31-56-62 17 31 39z"/><path fill="#80BDAC" stroke="#80BDAC" d="M1119.5 246l99-12-68-44-31 56z"/><path fill="#80B9A5" stroke="#80B9A5" d="M1218.5 234l7-35-75-9 68 44z"/><path fill="#80B7A3" stroke="#80B7A3" d="M1251.5 196l-26 3-7 35 33-38z"/><path fill="#80B6A4" stroke="#80B6A4" d="M1218.5 234l59-7-26-31-33 38z"/><path fill="#80B4A4" stroke="#80B4A4" d="M1283.5 233.7V226l-6.5 1 6.5 6.7z"/><path fill="#EFE1C3" stroke="#EFE1C3" d="M.5 242.7v74L79 242l-78.5.7z"/><path fill="#EAE2C7" stroke="#EAE2C7" d="M79.3 242L.5 316.7v2.7L76 305l3.3-63z"/><path fill="#F2E6CE" stroke="#F2E6CE" d="M79.5 242l-3 63 70-71-67 8z"/><path fill="#F3E9D5" stroke="#F3E9D5" d="M146.5 234l-70 71 96-44-26-27z"/><path fill="#EAE7D4" stroke="#EAE7D4" d="M172.5 261l-96 44 88 25 8-69z"/><path fill="#EDECDD" stroke="#EDECDD" d="M172.5 261l-8 69 80-41-72-28z"/><path fill="#F5F3EA" stroke="#F5F3EA" d="M257.5 229l-13 60 50 29-37-89z"/><path fill="#F8F4EC" stroke="#F8F4EC" d="M257.5 229l37 89 33-88-70-1z"/><path fill="#F9F7F2" stroke="#F9F7F2" d="M327.5 230l-33 88 52-75-19-13z"/><path fill="#F3F6F4" stroke="#F3F6F4" d="M346.5 243l-52 75 81-7-29-68z"/><path fill="#F5F8F8" stroke="#F5F8F8" d="M375.5 311l71-49-100-19 29 68z"/><path fill="#EAF4F4" stroke="#EAF4F4" d="M436.5 299l10-37-71 49 61-12z"/><path fill="#EAF4F3" stroke="#EAF4F3" d="M457.5 276l-11-14-10 37 21-23z"/><path fill="#E0F1EF" stroke="#E0F1EF" d="M457.5 276l-21 23 63 24-42-47z"/><path fill="#DEEFED" stroke="#DEEFED" d="M499.5 323l62-68-104 21 42 47z"/><path fill="#D1EBE8" stroke="#D1EBE8" d="M574.5 325l-13-70-62 68 75 2z"/><path fill="#D2EAE7" stroke="#D2EAE7" d="M626.5 255.5h-65l13 70 52-70z"/><path fill="#C7E6E3" stroke="#C7E6E3" d="M667.5 301l-41-46-52 70 93-24z"/><path fill="#CAE6E3" stroke="#CAE6E3" d="M648.5 246l-22 9 41 46-19-55z"/><path fill="#C6E4E1" stroke="#C6E4E1" d="M693.5 261l-45-15 19 55 26-40z"/><path fill="#BCE1DE" stroke="#BCE1DE" d="M736.5 294l-43-33-26 40 69-7z"/><path fill="#ADDBD7" stroke="#ADDBD7" d="M779.5 279l-43 15 30 33 13-48z"/><path fill="#ACDAD6" stroke="#ACDAD6" d="M817.5 265l-38 14-13 48 51-62z"/><path fill="#A5D7D3" stroke="#A5D7D3" d="M866.5 297l-49-32-51 62 100-30z"/><path fill="#A5D6D2" stroke="#A5D6D2" d="M894.5 260l-77 5 49 32 28-37z"/><path fill="#9CD4CE" stroke="#9CD4CE" d="M893.5 306l1-46-28 37 27 9z"/><path fill="#96D1CC" stroke="#96D1CC" d="M967.5 303l-73-43-1 46 74-3z"/><path fill="#98D1CB" stroke="#98D1CB" d="M954.5 234l-60 26 73 43-13-69z"/><path fill="#93CEC7" stroke="#93CEC7" d="M991.5 251l-37-17 13 69 24-52z"/><path fill="#87CBC5" stroke="#87CBC5" d="M1016.5 337l-25-86-24 52 49 34z"/><path fill="#80C8C2" stroke="#80C8C2" d="M1016.5 337l36-17-61-69 25 86z"/><path fill="#83C9C3" stroke="#83C9C3" d="M1052.5 320l14-39-75-30 61 69z"/><path fill="#76C4BD" stroke="#76C4BD" d="M1052.5 320l76-17-62-22-14 39z"/><path fill="#7EC5BE" stroke="#7EC5BE" d="M1128.5 303l-9-57-53 35 62 22z"/><path fill="#80C1B8" stroke="#80C1B8" d="M1128.5 303l90-69-99 12 9 57z"/><path fill="#79BEB6" stroke="#79BEB6" d="M1193.5 340l25-106-90 69 65 37z"/><path fill="#76BAB2" stroke="#76BAB2" d="M1193.5 340l65-9-40-97-25 106z"/><path fill="#80BAB1" stroke="#80BAB1" d="M1258.5 331l19-104-59 7 40 97z"/><path fill="#7EB8B0" stroke="#7EB8B0" d="M1258.3 331l25.3-29v-68.4l-6.4-6.7-19 104z"/><path fill="#77B5AC" stroke="#77B5AC" d="M1283.5 317.6V302l-25.5 29 25.5-13.4z"/><path fill="#D0D8B7" stroke="#D0D8B7" d="M.5 325.8v58.8L44 398 .5 325.8z"/><path fill="#D9DDBF" stroke="#D9DDBF" d="M76.3 305L.5 319.3v6.5L44 398l32.3-93z"/><path fill="#D8DFC5" stroke="#D8DFC5" d="M76.5 305l-32 93 71-55-39-38z"/><path fill="#E0E3CE" stroke="#E0E3CE" d="M164.5 330l-88-25 39 38 49-13z"/><path fill="#D1DEC5" stroke="#D1DEC5" d="M115.5 343l-71 55 89-26-18-29z"/><path fill="#DAE3CE" stroke="#DAE3CE" d="M115.5 343l18 29 31-42-49 13z"/><path fill="#D7E4D0" stroke="#D7E4D0" d="M164.5 330.5l-31 42h44l-13-42z"/><path fill="#DBE7D8" stroke="#DBE7D8" d="M252.5 348l-88-18 13 42 75-24z"/><path fill="#E5EBDE" stroke="#E5EBDE" d="M244.5 289l-80 41 88 18-8-59z"/><path fill="#E8EFE5" stroke="#E8EFE5" d="M244.5 289l8 59 42-30-50-29z"/><path fill="#E0EEE6" stroke="#E0EEE6" d="M294.5 318l-42 30 60 18-18-48z"/><path fill="#E5F2EE" stroke="#E5F2EE" d="M294.5 318l18 48 63-55-81 7z"/><path fill="#DEF1EE" stroke="#DEF1EE" d="M375.5 311l-63 55 37 26 26-81z"/><path fill="#DCF2F0" stroke="#DCF2F0" d="M375.5 311l-26 81 60-30-34-51z"/><path fill="#E1F3F1" stroke="#E1F3F1" d="M436.5 299l-61 12 34 51 27-63z"/><path fill="#D7EFED" stroke="#D7EFED" d="M470.5 357l-34-58-27 63 61-5z"/><path fill="#D6EEEC" stroke="#D6EEEC" d="M499.5 323l-63-24 34 58 29-34z"/><path fill="#CDEBE8" stroke="#CDEBE8" d="M517.5 341l-18-18-29 34 47-16z"/><path fill="#CBE9E6" stroke="#CBE9E6" d="M574.5 325l-75-2 18 18 57-16z"/><path fill="#C9E9E6" stroke="#C9E9E6" d="M470.5 357l47-3v-13l-47 16z"/><path fill="#C6E8E5" stroke="#C6E8E5" d="M517.5 354l57-29-57 16v13z"/><path fill="#BEE5E2" stroke="#BEE5E2" d="M545.5 407l29-82-57 29 28 53z"/><path fill="#B6E2DE" stroke="#B6E2DE" d="M628.5 365l-54-40-29 82 83-42z"/><path fill="#BBE3DF" stroke="#BBE3DF" d="M667.5 301l-93 24 54 40 39-64z"/><path fill="#ACDDD9" stroke="#ACDDD9" d="M726.5 380l-59-79-39 64 98 15z"/><path fill="#AEDDD8" stroke="#AEDDD8" d="M736.5 294l-69 7 59 79 10-86z"/><path fill="#A5DAD5" stroke="#A5DAD5" d="M766.5 327l-30-33-10 86 40-53z"/><path fill="#9BD7D1" stroke="#9BD7D1" d="M766.5 327l-40 53 23-3 17-50z"/><path fill="#95D4CE" stroke="#95D4CE" d="M839.5 386l-73-59-17 50 90 9z"/><path fill="#96D3CE" stroke="#96D3CE" d="M866.5 297l-100 30 73 59 27-89z"/><path fill="#8CD0CA" stroke="#8CD0CA" d="M881.5 362l-15-65-27 89 42-24z"/><path fill="#92D1CB" stroke="#92D1CB" d="M893.5 306l-27-9 15 65 12-56z"/><path fill="#8CCEC8" stroke="#8CCEC8" d="M967.5 303l-74 3-12 56 86-59z"/><path fill="#7ECAC4" stroke="#7ECAC4" d="M881.5 362l69 34 17-93-86 59z"/><path fill="#79C8C1" stroke="#79C8C1" d="M950.5 396l66-59-49-34-17 93z"/><path fill="#6EC4BC" stroke="#6EC4BC" d="M1005.5 393l11-56-66 59 55-3z"/><path fill="#68C2BA" stroke="#68C2BA" d="M1005.5 393l70-10-59-46-11 56z"/><path fill="#6DC3BB" stroke="#6DC3BB" d="M1075.5 383l-23-63-36 17 59 46z"/><path fill="#6BC1B9" stroke="#6BC1B9" d="M1075.5 383l53-80-76 17 23 63z"/><path fill="#63BCB4" stroke="#63BCB4" d="M1160.5 394l-32-91-53 80 85 11z"/><path fill="#67BBB2" stroke="#67BBB2" d="M1160.5 394l33-54-65-37 32 91z"/><path fill="#5FB6AD" stroke="#5FB6AD" d="M1224.5 381l-31-41-33 54 64-13z"/><path fill="#66B6AC" stroke="#66B6AC" d="M1224.5 381l34-50-65 9 31 41z"/><path fill="#5EB2A7" stroke="#5EB2A7" d="M1275.5 415l-17-84-34 50 51 34z"/><path fill="#62B0A6" stroke="#62B0A6" d="M1275.3 415l8.3-9v-70.7l-25.4-4.3 17 84z"/><path fill="#6FB2A9" stroke="#6FB2A9" d="M1283.5 335.3v-17.7L1258 331l25.5 4.3z"/><path fill="#BBD1AC" stroke="#BBD1AC" d="M.5 408v33l19.5-6L.5 408z"/><path fill="#C4D5B5" stroke="#C4D5B5" d="M44.3 398L.5 384.6V408L20 435l24.3-37z"/><path fill="#BCD5B5" stroke="#BCD5B5" d="M20.5 435l33 25-9-62-24 37z"/><path fill="#BCD7BC" stroke="#BCD7BC" d="M44.5 398l9 62 101-15-110-47z"/><path fill="#C7DCC3" stroke="#C7DCC3" d="M133.5 372l-89 26 110 47-21-73z"/><path fill="#CBE0CB" stroke="#CBE0CB" d="M133.5 372.5l21 73 23-73h-44z"/><path fill="#C4E1CF" stroke="#C4E1CF" d="M177.5 372l-23 73 97 1-74-74z"/><path fill="#C9E5D7" stroke="#C9E5D7" d="M177.5 372l74 74 28-37-102-37z"/><path fill="#D4E8DB" stroke="#D4E8DB" d="M252.5 348l-75 24 102 37-27-61z"/><path fill="#D6EBE2" stroke="#D6EBE2" d="M312.5 366l-60-18 27 61 33-43z"/><path fill="#D0EBE3" stroke="#D0EBE3" d="M312.5 366l-33 43 53 4-20-47z"/><path fill="#D2EDE8" stroke="#D2EDE8" d="M349.5 392l-37-26 20 47 17-21z"/><path fill="#CBEDE9" stroke="#CBEDE9" d="M349.5 392l-17 21 58 34-41-55z"/><path fill="#CDEDEB" stroke="#CDEDEB" d="M409.5 362l-60 30 41 55 19-85z"/><path fill="#C0E9E5" stroke="#C0E9E5" d="M390.5 447l95-8-76-77-19 85z"/><path fill="#C5EAE6" stroke="#C5EAE6" d="M409.5 362l76 77-15-82-61 5z"/><path fill="#C0E7E4" stroke="#C0E7E4" d="M470.5 357l15 82 32-85-47 3z"/><path fill="#B6E4E0" stroke="#B6E4E0" d="M517.5 354l-32 85 60-32-28-53z"/><path fill="#ACDFDA" stroke="#ACDFDA" d="M545.5 407l84-15-1-27-83 42z"/><path fill="#A5DCD6" stroke="#A5DCD6" d="M629.5 392l97-12-98-15 1 27z"/><path fill="#A5DDD8" stroke="#A5DDD8" d="M585.5 451l44-59-84 15 40 44z"/><path fill="#98D9D3" stroke="#98D9D3" d="M585.5 451l44 36v-95l-44 59z"/><path fill="#93D7D1" stroke="#93D7D1" d="M629.5 487l56-47-56-48v95z"/><path fill="#99D8D2" stroke="#99D8D2" d="M629.5 392l56 48 41-60-97 12z"/><path fill="#8CD4CD" stroke="#8CD4CD" d="M685.5 440l43 16-2-76-41 60z"/><path fill="#87D1CB" stroke="#87D1CB" d="M726.5 380l2 76 42-10-44-66z"/><path fill="#8ED3CD" stroke="#8ED3CD" d="M726.5 380l44 66-21-69-23 3z"/><path fill="#84D0C9" stroke="#84D0C9" d="M749.5 377l21 69 65-29-86-40z"/><path fill="#87D0C9" stroke="#87D0C9" d="M835.5 417l4-31-90-9 86 40z"/><path fill="#7BCCC4" stroke="#7BCCC4" d="M835.5 417l35 5-31-36-4 31z"/><path fill="#7ECCC5" stroke="#7ECCC5" d="M839.5 386l31 36 11-60-42 24z"/><path fill="#77C9C2" stroke="#77C9C2" d="M870.5 422l80-26-69-34-11 60z"/><path fill="#6AC5BD" stroke="#6AC5BD" d="M953.5 444l-3-48-80 26 83 22z"/><path fill="#61C1B9" stroke="#61C1B9" d="M953.5 444l58-15-61-33 3 48z"/><path fill="#64C2B9" stroke="#64C2B9" d="M950.5 396l61 33-6-36-55 3z"/><path fill="#5EBFB6" stroke="#5EBFB6" d="M1011.5 429l64-46-70 10 6 36z"/><path fill="#58BDB4" stroke="#58BDB4" d="M1087.5 411l-12-28-64 46 76-18z"/><path fill="#57BAB1" stroke="#57BAB1" d="M1087.5 411l73-17-85-11 12 28z"/><path fill="#51B7AE" stroke="#51B7AE" d="M1133.5 437l27-43-73 17 46 26z"/><path fill="#4DB4A9" stroke="#4DB4A9" d="M1133.5 437l64 12-37-55-27 43z"/><path fill="#51B2A7" stroke="#51B2A7" d="M1197.5 449l37-46-74-9 37 55z"/><path fill="#58B4A9" stroke="#58B4A9" d="M1234.5 403l-10-22-64 13 74 9z"/><path fill="#56B0A6" stroke="#56B0A6" d="M1234.5 403l41 12-51-34 10 22z"/><path fill="#4EAFA4" stroke="#4EAFA4" d="M1197.5 449l78-34-41-12-37 46z"/><path fill="#57ACA0" stroke="#57ACA0" d="M1283.5 418v-12l-8.5 9 8.5 3z"/><path fill="#AECCA7" stroke="#AECCA7" d="M.5 441v21L20 435 .5 441z"/><path fill="#B0D0AE" stroke="#B0D0AE" d="M20.3 435L.5 462v25.6L53 460l-32.7-25z"/><path fill="#A6CDAA" stroke="#A6CDAA" d="M53.3 460L.5 487.5v32L16 528l37.3-68z"/><path fill="#A8D0B0" stroke="#A8D0B0" d="M53.5 460l-37 68 55-40-18-28z"/><path fill="#AED4B7" stroke="#AED4B7" d="M125.5 481l-72-21 18 28 54-7z"/><path fill="#B2D6BC" stroke="#B2D6BC" d="M143.5 463l-90-3 72 21 18-18z"/><path fill="#B6D8BF" stroke="#B6D8BF" d="M154.5 445l-101 15 90 3 11-18z"/><path fill="#B0D8C1" stroke="#B0D8C1" d="M143.5 463l-18 18 44 8-26-26z"/><path fill="#B4DAC4" stroke="#B4DAC4" d="M154.5 445l-11 18 26 26-15-44z"/><path fill="#B7DDCA" stroke="#B7DDCA" d="M251.5 446l-97-1 15 44 82-43z"/><path fill="#B0DDCD" stroke="#B0DDCD" d="M251.5 446l-82 43 84 33-2-76z"/><path fill="#B2E1D4" stroke="#B2E1D4" d="M306.5 481l-55-35 2 76 53-41z"/><path fill="#BFE5DA" stroke="#BFE5DA" d="M279.5 409l-28 37 55 35-27-72z"/><path fill="#C3E8DF" stroke="#C3E8DF" d="M279.5 409l27 72 26-68-53-4z"/><path fill="#BDE8E1" stroke="#BDE8E1" d="M332.5 413l-26 68 57-3-31-65z"/><path fill="#C1EBE6" stroke="#C1EBE6" d="M332.5 413l31 65 27-31-58-34z"/><path fill="#B5E7E2" stroke="#B5E7E2" d="M363.5 478l48 14-21-45-27 31z"/><path fill="#B2E5E1" stroke="#B2E5E1" d="M411.5 492l74-53-95 8 21 45z"/><path fill="#A5E1DB" stroke="#A5E1DB" d="M411.5 492l55 34 19-87-74 53z"/><path fill="#9DDED8" stroke="#9DDED8" d="M485.5 439l-19 87 40-12-21-75z"/><path fill="#9FDDD8" stroke="#9FDDD8" d="M506.5 514l45-44-66-31 21 75z"/><path fill="#A8E0DB" stroke="#A8E0DB" d="M485.5 439l66 31-6-63-60 32z"/><path fill="#A1DDD7" stroke="#A1DDD7" d="M545.5 407l6 63 34-19-40-44z"/><path fill="#96DAD3" stroke="#96DAD3" d="M551.5 470l35 16-1-35-34 19z"/><path fill="#8FD7D1" stroke="#8FD7D1" d="M586.5 486l43 1-44-36 1 35z"/><path fill="#81D2CA" stroke="#81D2CA" d="M629.5 487l58 40-2-87-56 47z"/><path fill="#7FD0C9" stroke="#7FD0C9" d="M685.5 440l2 87 41-71-43-16z"/><path fill="#72CCC4" stroke="#72CCC4" d="M728.5 456.5l-41 71h60l-19-71z"/><path fill="#75CDC5" stroke="#75CDC5" d="M728.5 456l19 71v-63l-19-8z"/><path fill="#7DCFC7" stroke="#7DCFC7" d="M770.5 446l-42 10 19 8 23-18z"/><path fill="#77CCC4" stroke="#77CCC4" d="M747.5 464l60 7-37-25-23 18z"/><path fill="#77CBC4" stroke="#77CBC4" d="M770.5 446l37 25 28-54-65 29z"/><path fill="#6EC9C1" stroke="#6EC9C1" d="M807.5 471l33 14-5-68-28 54z"/><path fill="#70C9C1" stroke="#70C9C1" d="M840.5 485l30-63-35-5 5 68z"/><path fill="#66C5BD" stroke="#66C5BD" d="M840.5 485l53-3-23-60-30 63z"/><path fill="#64C4BB" stroke="#64C4BB" d="M870.5 422l23 60 60-38-83-22z"/><path fill="#57C0B6" stroke="#57C0B6" d="M893.5 482l76 5-16-43-60 38z"/><path fill="#56BEB5" stroke="#56BEB5" d="M969.5 487l42-58-58 15 16 43z"/><path fill="#4EBCB2" stroke="#4EBCB2" d="M993.5 498l18-69-42 58 24 11z"/><path fill="#46B9AF" stroke="#46B9AF" d="M993.5 498l32 33-14-102-18 69z"/><path fill="#3FB6AC" stroke="#3FB6AC" d="M1011.5 429l14 102 75-20-89-82z"/><path fill="#48B8AE" stroke="#48B8AE" d="M1100.5 511l-13-100-76 18 89 82z"/><path fill="#44B5AB" stroke="#44B5AB" d="M1100.5 511l33-74-46-26 13 100z"/><path fill="#39B0A5" stroke="#39B0A5" d="M1162.5 519l-29-82-33 74 62 8z"/><path fill="#40B0A5" stroke="#40B0A5" d="M1162.5 519l35-70-64-12 29 82z"/><path fill="#38AB9F" stroke="#38AB9F" d="M1228.5 509l-31-60-35 70 66-10z"/><path fill="#3CAA9E" stroke="#3CAA9E" d="M1228.5 509l46-26-77-34 31 60z"/><path fill="#46ACA0" stroke="#46ACA0" d="M1274.5 483l1-68-78 34 77 34z"/><path fill="#43A89C" stroke="#43A89C" d="M1274.3 483l9.3-2.3V437l-8.4-22-1 68z"/><path fill="#49A99D" stroke="#49A99D" d="M1283.5 437v-19l-8.5-3 8.5 22z"/><path fill="#9CC9A3" stroke="#9CC9A3" d="M.5 519.4V531l15.5-3-15.5-8.6z"/><path fill="#9BCCAA" stroke="#9BCCAA" d="M71.5 488l-55 40 13 46 42-86z"/><path fill="#9CCEB0" stroke="#9CCEB0" d="M71.5 488l-42 86 101-36-59-50z"/><path fill="#A7D3B8" stroke="#A7D3B8" d="M125.5 481l-54 7 59 50-5-57z"/><path fill="#A8D6BE" stroke="#A8D6BE" d="M169.5 489l-44-8 5 57 39-49z"/><path fill="#A1D5BD" stroke="#A1D5BD" d="M169.5 489l-39 49 32 15 7-64z"/><path fill="#A3D8C4" stroke="#A3D8C4" d="M253.5 522l-84-33-7 64 91-31z"/><path fill="#9ED8C6" stroke="#9ED8C6" d="M253.5 522l-91 31 88-9 3-22z"/><path fill="#9FDBCD" stroke="#9FDBCD" d="M306.5 564l-53-42-3 22 56 20z"/><path fill="#A6DFD3" stroke="#A6DFD3" d="M306.5 481l-53 41 53 42v-83z"/><path fill="#A3E0D7" stroke="#A3E0D7" d="M306.5 564l54-9-54-74v83z"/><path fill="#AEE4DE" stroke="#AEE4DE" d="M306.5 481l54 74 3-77-57 3z"/><path fill="#AAE4DF" stroke="#AAE4DF" d="M363.5 478l-3 77 51-63-48-14z"/><path fill="#9CDFD9" stroke="#9CDFD9" d="M360.5 555l77 23-26-86-51 63z"/><path fill="#99DED8" stroke="#99DED8" d="M437.5 578l29-52-55-34 26 86z"/><path fill="#90DAD4" stroke="#90DAD4" d="M466.5 526l50 15-10-27-40 12z"/><path fill="#91DAD3" stroke="#91DAD3" d="M506.5 514l10 27 35-71-45 44z"/><path fill="#90D9D2" stroke="#90D9D2" d="M551.5 470l-35 71 70-55-35-16z"/><path fill="#84D5CE" stroke="#84D5CE" d="M516.5 541l56 35 14-90-70 55z"/><path fill="#83D4CD" stroke="#83D4CD" d="M586.5 486l-14 90 57-89-43-1z"/><path fill="#75D0C8" stroke="#75D0C8" d="M572.5 576l70 10-13-99-57 89z"/><path fill="#74CFC6" stroke="#74CFC6" d="M642.5 586l45-59-58-40 13 99z"/><path fill="#6FCAC2" stroke="#6FCAC2" d="M747.5 464v63l60-56-60-7z"/><path fill="#61C6BC" stroke="#61C6BC" d="M747.5 527l97 22-37-78-60 56z"/><path fill="#60C4BB" stroke="#60C4BB" d="M807.5 471l37 78-4-64-33-14z"/><path fill="#59C2B9" stroke="#59C2B9" d="M844.5 549l49-67-53 3 4 64z"/><path fill="#4FBFB5" stroke="#4FBFB5" d="M844.5 549l83-16-34-51-49 67z"/><path fill="#4CBDB3" stroke="#4CBDB3" d="M927.5 533l17-8-51-43 34 51z"/><path fill="#4FBDB3" stroke="#4FBDB3" d="M893.5 482l51 43 25-38-76-5z"/><path fill="#48BBB0" stroke="#48BBB0" d="M969.5 487l-25 38 49-27-24-11z"/><path fill="#40B8AD" stroke="#40B8AD" d="M944.5 525l81 6-32-33-49 27z"/><path fill="#2EB1A5" stroke="#2EB1A5" d="M1025.5 531l47 18 28-38-75 20z"/><path fill="#26ADA0" stroke="#26ADA0" d="M1072.5 549l92 28-64-66-28 38z"/><path fill="#2AAB9F" stroke="#2AAB9F" d="M1164.5 577l-2-58-62-8 64 66z"/><path fill="#23A799" stroke="#23A799" d="M1164.5 577l44-7-46-51 2 58z"/><path fill="#2BA89A" stroke="#2BA89A" d="M1208.5 570l20-61-66 10 46 51z"/><path fill="#27A496" stroke="#27A496" d="M1208.5 570l59-17-39-44-20 61z"/><path fill="#30A598" stroke="#30A598" d="M1267.5 553l7-70-46 26 39 44z"/><path fill="#2AA294" stroke="#2AA294" d="M1267.3 553l16.3 7.3v-34.5l-9.4-42.8-7 70z"/><path fill="#33A396" stroke="#33A396" d="M1283.5 525.8v-45l-9.5 2.3 9.5 43z"/><path fill="#8AC29A" stroke="#8AC29A" d="M1 590.3v.8h.5l-.5-.5z"/><path fill="#93C7A1" stroke="#93C7A1" d="M16.3 528L.5 531v59.3l.6.7 15.5-63z"/><path fill="#90C7A3" stroke="#90C7A3" d="M16.5 528l-15 63 28-17-13-46z"/><path fill="#88C5A1" stroke="#88C5A1" d="M29.5 574l-28 17 31 13-3-30z"/><path fill="#84C6A5" stroke="#84C6A5" d="M29.5 574l3 30 71 33-74-63z"/><path fill="#8CCBAC" stroke="#8CCBAC" d="M130.5 538l-101 36 74 63 27-99z"/><path fill="#8BCEB3" stroke="#8BCEB3" d="M130.5 538l-27 99 63-43-36-56z"/><path fill="#95D1B9" stroke="#95D1B9" d="M162.5 553l-32-15 36 56-4-41z"/><path fill="#96D4BF" stroke="#96D4BF" d="M162.5 553l4 41 84-50-88 9z"/><path fill="#90D5C3" stroke="#90D5C3" d="M166.5 594l96 15-12-65-84 50z"/><path fill="#95D9CB" stroke="#95D9CB" d="M250.5 544l12 65 44-45-56-20z"/><path fill="#90D9CC" stroke="#90D9CC" d="M262.5 609l40-11 4-34-44 45z"/><path fill="#90DBD0" stroke="#90DBD0" d="M302.5 598l33 15-29-49-4 34z"/><path fill="#96DDD4" stroke="#96DDD4" d="M335.5 613l25-58-54 9 29 49z"/><path fill="#92DED7" stroke="#92DED7" d="M335.5 613l103-26-78-32-25 58z"/><path fill="#90DCD5" stroke="#90DCD5" d="M360.5 555l78 32-1-9-77-23z"/><path fill="#85D8D1" stroke="#85D8D1" d="M438.5 587l23 12-24-21 1 9z"/><path fill="#8ADAD2" stroke="#8ADAD2" d="M437.5 578l24 21 5-73-29 52z"/><path fill="#8AD9D1" stroke="#8AD9D1" d="M466.5 526l-5 73 55-58-50-15z"/><path fill="#7BD4CC" stroke="#7BD4CC" d="M461.5 599l66 30-11-88-55 58z"/><path fill="#77D2CA" stroke="#77D2CA" d="M516.5 541l11 88 45-53-56-35z"/><path fill="#6BCEC5" stroke="#6BCEC5" d="M527.5 629l74-22-29-31-45 53z"/><path fill="#6ACDC4" stroke="#6ACDC4" d="M572.5 576l29 31 41-21-70-10z"/><path fill="#5DC8BE" stroke="#5DC8BE" d="M642.5 586l87 53-42-112-45 59z"/><path fill="#5CC6BC" stroke="#5CC6BC" d="M687.5 527l42 112 22-91-64-21z"/><path fill="#67C9C0" stroke="#67C9C0" d="M687.5 527.5l64 21-4-21h-60z"/><path fill="#5BC4BB" stroke="#5BC4BB" d="M747.5 527l4 21 93 1-97-22z"/><path fill="#4EC2B7" stroke="#4EC2B7" d="M751.5 548l-22 91 30-20-8-71z"/><path fill="#4DC1B6" stroke="#4DC1B6" d="M759.5 619l71-26-79-45 8 71z"/><path fill="#50C1B7" stroke="#50C1B7" d="M751.5 548l79 45 14-44-93-1z"/><path fill="#3FBBB0" stroke="#3FBBB0" d="M830.5 593l83 24-69-68-14 44z"/><path fill="#40BAAF" stroke="#40BAAF" d="M913.5 617l14-84-83 16 69 68z"/><path fill="#2FB5A8" stroke="#2FB5A8" d="M913.5 617l70 12-56-96-14 84z"/><path fill="#37B7AB" stroke="#37B7AB" d="M927.5 533l56 96-39-104-17 8z"/><path fill="#32B4A8" stroke="#32B4A8" d="M944.5 525l39 104 42-98-81-6z"/><path fill="#21AFA2" stroke="#21AFA2" d="M983.5 629l49 4-7-102-42 98z"/><path fill="#25AFA3" stroke="#25AFA3" d="M1025.5 531l7 102 40-84-47-18z"/><path fill="#16AB9D" stroke="#16AB9D" d="M1032.5 633l44 9-4-93-40 84z"/><path fill="#12A99B" stroke="#12A99B" d="M1076.5 642l58-9-62-84 4 93z"/><path fill="#19A99B" stroke="#19A99B" d="M1072.5 549l62 84 30-56-92-28z"/><path fill="#11A394" stroke="#11A394" d="M1134.5 633l75-8-45-48-30 56z"/><path fill="#18A395" stroke="#18A395" d="M1209.5 625l-1-55-44 7 45 48z"/><path fill="#14A091" stroke="#14A091" d="M1209.5 625l20-12-21-43 1 55z"/><path fill="#1CA192" stroke="#1CA192" d="M1229.5 613l38-60-59 17 21 43z"/><path fill="#1C9F91" stroke="#1C9F91" d="M1229.3 613l54.3-42.4v-10.3l-16.4-7.3-38 60z"/><path fill="#189D8E" stroke="#189D8E" d="M1283.5 599v-28.4L1229 613l54.5-14z"/><path fill="#75BC92" stroke="#75BC92" d="M.5 644v3.5L4 646l-3.5-2z"/><path fill="#7EC098" stroke="#7EC098" d="M1.2 591H.4v53l3.6 2-2.8-55z"/><path fill="#80C39D" stroke="#80C39D" d="M1.5 591l3 55 28-42-31-13z"/><path fill="#77C29D" stroke="#77C29D" d="M32.5 604l-28 42 54 28-26-70z"/><path fill="#79C4A2" stroke="#79C4A2" d="M32.5 604l26 70 45-37-71-33z"/><path fill="#74C5A6" stroke="#74C5A6" d="M103.5 637l-45 37 72-16-27-21z"/><path fill="#7ECAAE" stroke="#7ECAAE" d="M103.5 637l27 21 36-64-63 43z"/><path fill="#7ACBB2" stroke="#7ACBB2" d="M130.5 658l72 29-36-93-36 64z"/><path fill="#80D0BB" stroke="#80D0BB" d="M166.5 594l36 93 60-78-96-15z"/><path fill="#77CEBB" stroke="#77CEBB" d="M262.5 609l-60 78 41 5 19-83z"/><path fill="#78D0BF" stroke="#78D0BF" d="M243.5 692l36-7-17-76-19 83z"/><path fill="#83D5C6" stroke="#83D5C6" d="M262.5 609l17 76 23-87-40 11z"/><path fill="#83D7CA" stroke="#83D7CA" d="M302.5 598l-23 87 56-72-33-15z"/><path fill="#7ED6CB" stroke="#7ED6CB" d="M279.5 685l87-34-31-38-56 72z"/><path fill="#87DBD3" stroke="#87DBD3" d="M366.5 651l72-64-103 26 31 38z"/><path fill="#7FD8D0" stroke="#7FD8D0" d="M366.5 651l36 4 36-68-72 64z"/><path fill="#7FD7CF" stroke="#7FD7CF" d="M438.5 587l-36 68 59-56-23-12z"/><path fill="#70D2C9" stroke="#70D2C9" d="M402.5 655l91 45-32-101-59 56z"/><path fill="#6BD0C7" stroke="#6BD0C7" d="M461.5 599l32 101 34-71-66-30z"/><path fill="#61CCC2" stroke="#61CCC2" d="M493.5 700l23-6 11-65-34 71z"/><path fill="#5ACABF" stroke="#5ACABF" d="M516.5 694l104-14-93-51-11 65z"/><path fill="#5DCAC0" stroke="#5DCAC0" d="M527.5 629l93 51-19-73-74 22z"/><path fill="#53C6BC" stroke="#53C6BC" d="M601.5 607l19 73 18-10-37-63z"/><path fill="#5BC8BF" stroke="#5BC8BF" d="M601.5 607l37 63 4-84-41 21z"/><path fill="#50C5BA" stroke="#50C5BA" d="M638.5 670l76-22-72-62-4 84z"/><path fill="#4FC4B9" stroke="#4FC4B9" d="M714.5 648l15-9-87-53 72 62z"/><path fill="#3CBDB1" stroke="#3CBDB1" d="M714.5 648l31 85-16-94-15 9z"/><path fill="#39BBAF" stroke="#39BBAF" d="M729.5 639l16 94 35-89-51-5z"/><path fill="#41BEB3" stroke="#41BEB3" d="M729.5 639l51 5-21-25-30 20z"/><path fill="#41BDB2" stroke="#41BDB2" d="M759.5 619l21 25 50-51-71 26z"/><path fill="#37BAAE" stroke="#37BAAE" d="M780.5 644l51 28-1-79-50 51z"/><path fill="#32B7AC" stroke="#32B7AC" d="M830.5 593l1 79 82-55-83-24z"/><path fill="#23B3A6" stroke="#23B3A6" d="M831.5 672l79 17 3-72-82 55z"/><path fill="#1CB0A2" stroke="#1CB0A2" d="M910.5 689l24 8-21-80-3 72z"/><path fill="#1DB0A2" stroke="#1DB0A2" d="M934.5 697l49-68-70-12 21 80z"/><path fill="#16AC9E" stroke="#16AC9E" d="M934.5 697l20 10 29-78-49 68z"/><path fill="#12AA9D" stroke="#12AA9D" d="M954.5 707l41-9-12-69-29 78z"/><path fill="#11AB9D" stroke="#11AB9D" d="M983.5 629l12 69 37-65-49-4z"/><path fill="#0AA798" stroke="#0AA798" d="M995.5 698l49 8-12-73-37 65z"/><path fill="#07A798" stroke="#07A798" d="M1032.5 633l12 73 32-64-44-9z"/><path fill="#02A496" stroke="#02A496" d="M1044.5 706l60-47-28-17-32 64z"/><path fill="#06A496" stroke="#06A496" d="M1076.5 642l28 17 30-26-58 9z"/><path fill="#04A293" stroke="#04A293" d="M1104.5 659l38 4-8-30-30 26z"/><path fill="#08A192" stroke="#08A192" d="M1134.5 633l8 30 67-38-75 8z"/><path fill="#039E8F" stroke="#039E8F" d="M1142.5 663l49 12 18-50-67 38z"/><path fill="#009A8A" stroke="#009A8A" d="M1191.5 675l86 18-68-68-18 50z"/><path fill="#079B8B" stroke="#079B8B" d="M1277.5 693l-48-80-20 12 68 68z"/><path fill="#019787" stroke="#019787" d="M1277.3 693l6.3-7v-19.3l-54.4-53.7 48 80z"/><path fill="#0C9A8A" stroke="#0C9A8A" d="M1283.5 666.7V599l-54.5 14 54.5 53.7z"/><path fill="#6EB689" stroke="#6EB689" d="M.5 722v8.5L8 729l-7.5-7z"/><path fill="#6FBB92" stroke="#6FBB92" d="M4.3 646l-3.8 1.4V722l7.6 7-3.5-83z"/><path fill="#70BE97" stroke="#70BE97" d="M4.5 646l4 83 50-55-54-28z"/><path fill="#70BB96" stroke="#70BB96" d="M8.5 729l39 23 11-78-50 55z"/><path fill="#72BF9D" stroke="#72BF9D" d="M58.5 674l-11 78 98-26-87-52z"/><path fill="#73C3A5" stroke="#73C3A5" d="M58.5 674l87 52-15-68-72 16z"/><path fill="#74C6AC" stroke="#74C6AC" d="M130.5 658l15 68 57-39-72-29z"/><path fill="#75C5AA" stroke="#75C5AA" d="M202.5 687l-57 39 19 26 38-65z"/><path fill="#76C7AF" stroke="#76C7AF" d="M164.5 752l76-27-38-38-38 65z"/><path fill="#76CAB5" stroke="#76CAB5" d="M202.5 687l38 38 3-33-41-5z"/><path fill="#77CCBA" stroke="#77CCBA" d="M240.5 725l39-40-36 7-3 33z"/><path fill="#78CDBC" stroke="#78CDBC" d="M240.5 725l63 4-24-44-39 40z"/><path fill="#79D0C2" stroke="#79D0C2" d="M303.5 729l43-19-67-25 24 44z"/><path fill="#7AD4C8" stroke="#7AD4C8" d="M279.5 685l67 25 20-59-87 34z"/><path fill="#79D6CE" stroke="#79D6CE" d="M346.5 710l56-55-36-4-20 59z"/><path fill="#76D2C9" stroke="#76D2C9" d="M346.5 710l71 33-15-88-56 55z"/><path fill="#6ECFC5" stroke="#6ECFC5" d="M402.5 655l15 88 76-43-91-45z"/><path fill="#69CABF" stroke="#69CABF" d="M493.5 700l-76 43 77 4-1-47z"/><path fill="#63C8BD" stroke="#63C8BD" d="M494.5 747l33-10-34-37 1 47z"/><path fill="#61C9BE" stroke="#61C9BE" d="M527.5 737l-11-43-23 6 34 37z"/><path fill="#5DC6BB" stroke="#5DC6BB" d="M527.5 737.5h53l-64-43 11 43z"/><path fill="#57C5BA" stroke="#57C5BA" d="M516.5 694l64 43 40-57-104 14z"/><path fill="#4EC1B5" stroke="#4EC1B5" d="M620.5 680l-40 57 102-20-62-37z"/><path fill="#4BC2B6" stroke="#4BC2B6" d="M620.5 680l62 37-44-47-18 10z"/><path fill="#45C0B4" stroke="#45C0B4" d="M638.5 670l44 47 32-69-76 22z"/><path fill="#3FBCAF" stroke="#3FBCAF" d="M682.5 717l63 16-31-85-32 69z"/><path fill="#34B7AA" stroke="#34B7AA" d="M745.5 733l61-19-26-70-35 89z"/><path fill="#2FB7AA" stroke="#2FB7AA" d="M780.5 644l26 70 25-42-51-28z"/><path fill="#2BB2A4" stroke="#2BB2A4" d="M806.5 714l51 49-26-91-25 42z"/><path fill="#25B0A2" stroke="#25B0A2" d="M831.5 672l26 91 53-74-79-17z"/><path fill="#20AC9D" stroke="#20AC9D" d="M857.5 763l59-25-6-49-53 74z"/><path fill="#1CAC9E" stroke="#1CAC9E" d="M910.5 689l6 49 18-41-24-8z"/><path fill="#1AAA9C" stroke="#1AAA9C" d="M916.5 738l38-31-20-10-18 41z"/><path fill="#12A697" stroke="#12A697" d="M954.5 707l34 72 7-81-41 9z"/><path fill="#0DA494" stroke="#0DA494" d="M995.5 698l-7 81 56-73-49-8z"/><path fill="#00A191" stroke="#00A191" d="M1044.5 706l79 19-19-66-60 47z"/><path fill="#00A090" stroke="#00A090" d="M1104.5 659l19 66 19-62-38-4z"/><path fill="#009D8D" stroke="#009D8D" d="M1142.5 663l-19 62 68-50-49-12z"/><path fill="#009A8A" stroke="#009A8A" d="M1123.5 725l73 4-5-54-68 50z"/><path fill="#009886" stroke="#009886" d="M1191.5 675l5 54 81-36-86-18z"/><path fill="#009482" stroke="#009482" d="M1196.5 729l83-1-2-35-81 36z"/><path fill="#00917E" stroke="#00917E" d="M1279.3 728l4.3 1.3v-28.5l-6.4-7.7 2 35z"/><path fill="#009280" stroke="#009280" d="M1283.5 700.7V686l-6.5 7 6.5 7.7z"/><path fill="#6EB387" stroke="#6EB387" d="M.5 730.5v71h5.2l2.5-72.3-7.7 1.3z"/><path fill="#70B68E" stroke="#70B68E" d="M8.5 729.3l-2.8 72.3H10l37.5-49-39-23.3z"/><path fill="#71B790" stroke="#71B790" d="M47.5 752.3L10 801.6h11.6l59-22-33-27.3z"/><path fill="#72BC9A" stroke="#72BC9A" d="M47.5 752l33 27 65-53-98 26z"/><path fill="#73BE9F" stroke="#73BE9F" d="M145.5 726l-65 53 61-14 4-39z"/><path fill="#74C1A4" stroke="#74C1A4" d="M145.5 726l-4 39 23-13-19-26z"/><path fill="#74C0A4" stroke="#74C0A4" d="M141.5 765l23 3v-16l-23 13z"/><path fill="#75C3A9" stroke="#75C3A9" d="M164.5 768l88-5-88-11v16z"/><path fill="#76C6AF" stroke="#76C6AF" d="M164.5 752l88 11-12-38-76 27z"/><path fill="#78CAB7" stroke="#78CAB7" d="M252.5 763l51-34-63-4 12 38z"/><path fill="#78CAB8" stroke="#78CAB8" d="M252.5 763l46 31 5-65-51 34z"/><path fill="#7ACCBE" stroke="#7ACCBE" d="M298.5 794l90-18-85-47-5 65z"/><path fill="#7AD0C4" stroke="#7AD0C4" d="M303.5 729l85 47-42-66-43 19z"/><path fill="#77CFC5" stroke="#77CFC5" d="M388.5 776l29-33-71-33 42 66z"/><path fill="#74CBBF" stroke="#74CBBF" d="M388.5 776.3l20.7 25.3h3.6l4.7-58-29 32.7z"/><path fill="#6EC8BC" stroke="#6EC8BC" d="M417.5 743.3l-4.7 58.3H435l50.5-9-68-49.3z"/><path fill="#69C8BC" stroke="#69C8BC" d="M417.5 743l68 49 9-45-77-4z"/><path fill="#62C4B8" stroke="#62C4B8" d="M485.5 792l69-27-60-18-9 45z"/><path fill="#5FC5B9" stroke="#5FC5B9" d="M494.5 747l60 18-27-28-33 10z"/><path fill="#5AC3B7" stroke="#5AC3B7" d="M554.5 765.5l26-28h-53l27 28z"/><path fill="#57BFB2" stroke="#57BFB2" d="M554.5 765.3l23.4 36.3h10.6l-8.3-64-26 27.7z"/><path fill="#50BBAE" stroke="#50BBAE" d="M580.5 737.3l8.3 64.3h48.8l33-15-90-49.3z"/><path fill="#4BBCAF" stroke="#4BBCAF" d="M580.5 737l90 49 12-69-102 20z"/><path fill="#42B9AB" stroke="#42B9AB" d="M682.5 717l-12 69 75-53-63-16z"/><path fill="#3EB5A7" stroke="#3EB5A7" d="M670.5 786l75 4v-57l-75 53z"/><path fill="#38B3A4" stroke="#38B3A4" d="M745.5 790l38-14-38-43v57z"/><path fill="#34B3A6" stroke="#34B3A6" d="M745.5 733l38 43 23-62-61 19z"/><path fill="#2EB0A2" stroke="#2EB0A2" d="M806.5 714l-23 62 74-13-51-49z"/><path fill="#2BAD9E" stroke="#2BAD9E" d="M783.5 776l81-9-7-4-74 13z"/><path fill="#23AB9B" stroke="#23AB9B" d="M857.5 763l7 4 52-29-59 25z"/><path fill="#20A999" stroke="#20A999" d="M864.5 767l54 12-2-41-52 29z"/><path fill="#18A695" stroke="#18A695" d="M918.5 779.5h70l-72-41 2 41z"/><path fill="#16A798" stroke="#16A798" d="M916.5 738l72 41-34-72-38 31z"/><path fill="#09A191" stroke="#09A191" d="M1044.5 706l-56 73 78-38-22-35z"/><path fill="#019F8F" stroke="#019F8F" d="M1066.5 741l57-16-79-19 22 35z"/><path fill="#069D8C" stroke="#069D8C" d="M988.5 779l100 20-22-58-78 38z"/><path fill="#009C8B" stroke="#009C8B" d="M1088.5 799l35-74-57 16 22 58z"/><path fill="#009987" stroke="#009987" d="M1088.5 799l25 2 10-76-35 74z"/><path fill="#009785" stroke="#009785" d="M1123.5 725l-10 76 57-6-47-70z"/><path fill="#009786" stroke="#009786" d="M1170.5 795l26-66-73-4 47 70z"/><path fill="#00927F" stroke="#00927F" d="M1170.5 795.3l16.6 6.3h36l-26.3-72-26 65.7z"/><path fill="#00917F" stroke="#00917F" d="M1196.5 729.3l26.5 72.3h14.2l42.3-73-83 .7z"/><path fill="#008D7A" stroke="#008D7A" d="M1283.5 734l-4.3-5.8-42 73.3h42.6l3.6-1.7V734zm0 0v-4.8l-4.5-1.3 4.5 6z"/><path fill="#77C3AC" stroke="#77C3AC" d="M140.7 801.5H371l-72.5-7-157.8 7z"/><path fill="#73BB9B" stroke="#73BB9B" d="M80.5 779.3l-59 22.3H141l157.8-7-218-15.3z"/><path fill="#75C0A5" stroke="#75C0A5" d="M80.5 779l218 15-134-26-84 11z"/><path fill="#73BD9E" stroke="#73BD9E" d="M141.5 765l-61 14 84-11-23-3z"/><path fill="#77C5AF" stroke="#77C5AF" d="M164.5 768l134 26-46-31-88 5z"/><path fill="#7ACCC1" stroke="#7ACCC1" d="M298.5 794.3l72.5 7.3h38l-20.6-25-90 17.7z"/><path fill="#64C2B5" stroke="#64C2B5" d="M435 801.5h82.3l-31.8-9-50.5 9z"/><path fill="#5CBFB2" stroke="#5CBFB2" d="M485.5 792.3l31.8 9.3H578l-23.5-36-69 26.7z"/><path fill="#36AE9E" stroke="#36AE9E" d="M692.6 801.5H824l-78.4-11-53 11z"/><path fill="#47B6A8" stroke="#47B6A8" d="M670.5 786.3l-33 15.3h55l53-11-75-4.3z"/><path fill="#2BAB9B" stroke="#2BAB9B" d="M745.5 790.3l78.4 11.3h61l-101.8-25-38 13.7z"/><path fill="#24A999" stroke="#24A999" d="M783.5 776.3l101.7 25.3h43.5l-64.2-34-81 8.7z"/><path fill="#1DA595" stroke="#1DA595" d="M864.5 767.3l64.2 34.3h15l-25.2-22-54-12.3z"/><path fill="#16A291" stroke="#16A291" d="M918.5 779.5l25 22H977l11.5-22h-70z"/><path fill="#059A88" stroke="#059A88" d="M1077.4 801.5h36l-25-2-11 2z"/><path fill="#0C9D8C" stroke="#0C9D8C" d="M988.5 779.3L977 801.5h100.4l11-2-100-20.2z"/><path fill="#00927F" stroke="#00927F" d="M1113.5 801.5h73.6l-16.3-6-57 6z"/><linearGradient id="a" x1="644.5" x2="644.5" y1="811.5" y2="-5.5" gradientUnits="userSpaceOnUse"><stop offset=".5" stop-color="#27211F"/><stop offset="1" stop-color="#27211F" stop-opacity=".5"/></linearGradient><path fill="url(#a)" d="M-5.5-5.5h1300v817H-5.5z"/><path fill="#27211F" d="M-240.5 352.5h70v74h-70z"/><path fill="#4BD1D3" d="M-239.3 442h70v74h-70z"/><path fill="#F2EDE9" d="M-154 444h70v74h-70z"/><path fill="#C5A983" d="M-154 352h70v74h-70z"/><text fill="#665652" transform="translate(-236 392)" font-family="'Museo-300'" font-size="16">#27211f</text><text fill="#665844" transform="translate(-149 392)" font-family="'Museo-300'" font-size="16">#c5a983</text></svg>